<svg width="375" height="64" viewBox="0 0 375 64" fill="none" xmlns="http://www.w3.org/2000/svg">
<path d="M2.4 63V19.32L0.8 11.16L2.4 6.36H42L46 8.76L40.72 19.96L33.52 19.16H16L16.8 27.96H38.32V40.36H28.64L16.8 39.56V50.28L17.68 58.28L16.8 63H2.4ZM58.4688 22.92L48.3088 12.68L58.4688 2.52L68.6288 12.68L58.4688 22.92ZM51.2688 63V36.52L49.5888 30.12L51.1888 25.24H65.6688V63H51.2688ZM74.6281 63V38.92L73.0281 30.12L75.5081 25.24H87.4281V28.68L88.1481 29.16C88.7348 28.6267 89.5348 28.0133 90.5481 27.32C91.6148 26.5733 92.8948 25.9067 94.3881 25.32C95.8815 24.7333 97.5615 24.44 99.4281 24.44C104.228 24.44 107.828 25.8 110.228 28.52C112.628 31.24 113.828 35.0533 113.828 39.96V50.12L115.508 58.12L113.828 63H99.4281V42.04C99.4281 40.0133 98.9748 38.4667 98.0681 37.4C97.2148 36.28 95.8548 35.72 93.9881 35.72L89.0281 37.24V63H74.6281ZM135.622 63.8C133.115 63.8 130.689 63.16 128.342 61.88C126.049 60.6 124.155 58.5733 122.662 55.8C121.169 53.0267 120.422 49.4 120.422 44.92C120.422 39.96 121.142 35.9867 122.582 33C124.075 30.0133 125.995 27.8533 128.342 26.52C130.689 25.1333 133.115 24.44 135.622 24.44C139.409 24.44 142.075 24.76 143.622 25.4C145.222 26.04 146.022 26.36 146.022 26.36L145.222 11.24L146.022 6.44H160.502V50.2L162.102 58.2L160.502 63.08H146.822V59.16L146.022 58.76C146.022 58.76 145.622 59.1867 144.822 60.04C144.022 60.84 142.849 61.6667 141.302 62.52C139.755 63.3733 137.862 63.8 135.622 63.8ZM141.622 52.52L146.022 51.4V39.72C146.022 38.4933 145.622 37.5333 144.822 36.84C144.022 36.0933 142.955 35.72 141.622 35.72C139.649 35.72 138.155 36.3867 137.142 37.72C136.129 39 135.622 41.1333 135.622 44.12C135.622 47.0533 136.209 49.1867 137.382 50.52C138.555 51.8533 139.969 52.52 141.622 52.52Z" fill="#515151"/>
<path d="M167.797 63V49.5234H174.047V14.2891H167.797V0.8125H203.695C211.456 0.8125 217.419 2.27083 221.586 5.1875C225.753 8.07812 227.836 12.3229 227.836 17.9219C227.836 21.5417 226.938 24.5495 225.141 26.9453C223.344 29.3411 220.909 31.0469 217.836 32.0625C220.284 32.8698 222.094 34.1328 223.266 35.8516C224.464 37.5703 225.089 39.6667 225.141 42.1406L225.219 45.3828C225.271 46.763 225.57 47.8047 226.117 48.5078C226.69 49.1849 227.654 49.5234 229.008 49.5234H233.148V63H219.555C214.581 63 210.896 61.8542 208.5 59.5625C206.13 57.2448 204.919 53.8594 204.867 49.4062L204.789 44.2109C204.711 40.0443 202.784 37.9609 199.008 37.9609H193.891V49.5234H199.164V63H167.797ZM199.945 13.8984H193.891V27.1016H199.945C204.945 27.1016 207.445 24.901 207.445 20.5C207.445 16.099 204.945 13.8984 199.945 13.8984ZM259.555 63.7031C254.659 63.7031 250.427 62.8307 246.859 61.0859C243.318 59.3411 240.583 56.8542 238.656 53.625C236.755 50.3958 235.805 46.5547 235.805 42.1016C235.805 37.6224 236.755 33.7682 238.656 30.5391C240.583 27.3099 243.318 24.8229 246.859 23.0781C250.427 21.3073 254.659 20.4219 259.555 20.4219C264.451 20.4219 268.669 21.3073 272.211 23.0781C275.779 24.8229 278.513 27.3099 280.414 30.5391C282.341 33.7682 283.305 37.6224 283.305 42.1016C283.305 46.5547 282.341 50.3958 280.414 53.625C278.513 56.8542 275.779 59.3411 272.211 61.0859C268.669 62.8307 264.451 63.7031 259.555 63.7031ZM259.555 52.3359C263.07 52.3359 264.828 48.9115 264.828 42.0625C264.828 35.2135 263.07 31.7891 259.555 31.7891C256.039 31.7891 254.281 35.2135 254.281 42.0625C254.281 48.9115 256.039 52.3359 259.555 52.3359ZM311.195 63.7031C306.299 63.7031 302.068 62.8307 298.5 61.0859C294.958 59.3411 292.224 56.8542 290.297 53.625C288.396 50.3958 287.445 46.5547 287.445 42.1016C287.445 37.6224 288.396 33.7682 290.297 30.5391C292.224 27.3099 294.958 24.8229 298.5 23.0781C302.068 21.3073 306.299 20.4219 311.195 20.4219C316.091 20.4219 320.31 21.3073 323.852 23.0781C327.419 24.8229 330.154 27.3099 332.055 30.5391C333.982 33.7682 334.945 37.6224 334.945 42.1016C334.945 46.5547 333.982 50.3958 332.055 53.625C330.154 56.8542 327.419 59.3411 323.852 61.0859C320.31 62.8307 316.091 63.7031 311.195 63.7031ZM311.195 52.3359C314.711 52.3359 316.469 48.9115 316.469 42.0625C316.469 35.2135 314.711 31.7891 311.195 31.7891C307.68 31.7891 305.922 35.2135 305.922 42.0625C305.922 48.9115 307.68 52.3359 311.195 52.3359ZM339.555 63V51.2812H345.609V32.8438H339.164V22.1797L345.609 21.5547V18.6641C345.609 13.4036 347.302 9.34115 350.688 6.47656C354.099 3.58594 358.982 2.14062 365.336 2.14062C367.133 2.14062 368.786 2.23177 370.297 2.41406C371.807 2.59635 373.305 2.86979 374.789 3.23438V14.4062L373.734 14.875C373.161 14.6927 372.536 14.5234 371.859 14.3672C371.208 14.1849 370.388 14.0938 369.398 14.0938C367.654 14.0938 366.378 14.5365 365.57 15.4219C364.763 16.2812 364.359 17.4922 364.359 19.0547V21.125H373.812V32.8438H364.359V51.2812H373.812V63H339.555Z" fill="#EA4335"/>
</svg>
